<svg width="42" height="42" viewBox="0 0 42 42" fill="none" xmlns="http://www.w3.org/2000/svg">
<g filter="url(#filter0_d_10_40)">
<path fill-rule="evenodd" clip-rule="evenodd" d="M21 0C11.6112 0 4 7.61116 4 17C4 26.3888 11.6112 34 21 34C30.3888 34 38 26.3888 38 17C38 7.61116 30.3888 0 21 0ZM22.7719 17.7467V26.9956H18.9452V17.7471H17.0333V14.5599H18.9452V12.6463C18.9452 10.0461 20.0247 8.5 23.0918 8.5H25.6453V11.6876H24.0492C22.8553 11.6876 22.7763 12.133 22.7763 12.9643L22.7719 14.5595H25.6634L25.325 17.7467H22.7719Z" fill="white"/>
</g>
<defs>
<filter id="filter0_d_10_40" x="0" y="0" width="42" height="42" filterUnits="userSpaceOnUse" color-interpolation-filters="sRGB">
<feFlood flood-opacity="0" result="BackgroundImageFix"/>
<feColorMatrix in="SourceAlpha" type="matrix" values="0 0 0 0 0 0 0 0 0 0 0 0 0 0 0 0 0 0 127 0" result="hardAlpha"/>
<feOffset dy="4"/>
<feGaussianBlur stdDeviation="2"/>
<feComposite in2="hardAlpha" operator="out"/>
<feColorMatrix type="matrix" values="0 0 0 0 0 0 0 0 0 0 0 0 0 0 0 0 0 0 0.25 0"/>
<feBlend mode="normal" in2="BackgroundImageFix" result="effect1_dropShadow_10_40"/>
<feBlend mode="normal" in="SourceGraphic" in2="effect1_dropShadow_10_40" result="shape"/>
</filter>
</defs>
</svg>
