<svg width="34" height="34" viewBox="0 0 34 34" fill="none" xmlns="http://www.w3.org/2000/svg">
<path fill-rule="evenodd" clip-rule="evenodd" d="M17 0C7.61116 0 0 7.61116 0 17C0 26.3888 7.61116 34 17 34C26.3888 34 34 26.3888 34 17C34 7.61116 26.3888 0 17 0ZM13.2623 7.98811C14.2294 7.9441 14.5385 7.93333 17.0009 7.93333H16.998C19.4612 7.93333 19.769 7.9441 20.7362 7.98811C21.7014 8.03231 22.3606 8.18512 22.9386 8.40934C23.5355 8.64073 24.0399 8.95051 24.5442 9.45485C25.0485 9.95881 25.3583 10.4647 25.5907 11.061C25.8136 11.6375 25.9666 12.2963 26.0119 13.2616C26.0553 14.2287 26.0667 14.5377 26.0667 17.0001C26.0667 19.4625 26.0553 19.7707 26.0119 20.7379C25.9666 21.7027 25.8136 22.3618 25.5907 22.9384C25.3583 23.5346 25.0485 24.0404 24.5442 24.5444C24.0404 25.0487 23.5353 25.3593 22.9392 25.5908C22.3623 25.8151 21.7027 25.9679 20.7375 26.0121C19.7704 26.0561 19.4623 26.0669 16.9997 26.0669C14.5375 26.0669 14.2287 26.0561 13.2616 26.0121C12.2965 25.9679 11.6375 25.8151 11.0606 25.5908C10.4647 25.3593 9.95881 25.0487 9.45504 24.5444C8.95089 24.0404 8.64111 23.5346 8.40934 22.9383C8.18531 22.3618 8.0325 21.7029 7.98811 20.7377C7.94429 19.7706 7.93333 19.4625 7.93333 17.0001C7.93333 14.5377 7.94467 14.2285 7.98792 13.2614C8.03137 12.2965 8.18437 11.6375 8.40915 11.0608C8.64149 10.4647 8.95127 9.95881 9.4556 9.45485C9.95957 8.9507 10.4654 8.64092 11.0617 8.40934C11.6382 8.18512 12.2971 8.03231 13.2623 7.98811Z" fill="white"/>
<path fill-rule="evenodd" clip-rule="evenodd" d="M16.1875 9.56724C16.3454 9.56699 16.5153 9.56707 16.6987 9.56715L17.0008 9.56724C19.4217 9.56724 19.7086 9.57593 20.6646 9.61937C21.5486 9.6598 22.0284 9.80751 22.348 9.93161C22.7711 10.0959 23.0727 10.2924 23.3899 10.6097C23.7072 10.9271 23.9037 11.2293 24.0684 11.6524C24.1925 11.9716 24.3404 12.4514 24.3806 13.3354C24.4241 14.2912 24.4335 14.5783 24.4335 16.998C24.4335 19.4177 24.4241 19.7048 24.3806 20.6606C24.3402 21.5446 24.1925 22.0244 24.0684 22.3436C23.9041 22.7667 23.7072 23.068 23.3899 23.3852C23.0726 23.7025 22.7713 23.899 22.348 24.0633C22.0287 24.188 21.5486 24.3353 20.6646 24.3757C19.7088 24.4192 19.4217 24.4286 17.0008 24.4286C14.5798 24.4286 14.2929 24.4192 13.3371 24.3757C12.4531 24.3349 11.9733 24.1872 11.6535 24.0631C11.2304 23.8988 10.9282 23.7023 10.6109 23.385C10.2935 23.0676 10.0971 22.7662 9.93236 22.3429C9.80826 22.0236 9.66036 21.5439 9.62013 20.6599C9.57668 19.7041 9.56799 19.417 9.56799 16.9957C9.56799 14.5745 9.57668 14.2889 9.62013 13.3332C9.66055 12.4491 9.80826 11.9694 9.93236 11.6498C10.0967 11.2266 10.2935 10.9244 10.6109 10.6071C10.9282 10.2897 11.2304 10.0933 11.6535 9.92859C11.9731 9.80392 12.4531 9.65658 13.3371 9.61597C14.1735 9.57819 14.4977 9.56686 16.1875 9.56497V9.56724ZM21.8406 11.0727C21.2399 11.0727 20.7526 11.5595 20.7526 12.1603C20.7526 12.761 21.2399 13.2483 21.8406 13.2483C22.4413 13.2483 22.9286 12.761 22.9286 12.1603C22.9286 11.5597 22.4413 11.0723 21.8406 11.0723V11.0727ZM12.3447 17.0001C12.3447 14.4287 14.4295 12.3439 17.0008 12.3439H17.0007C19.572 12.3439 21.6563 14.4287 21.6563 17.0001C21.6563 19.5715 19.5722 21.6553 17.0008 21.6553C14.4295 21.6553 12.3447 19.5715 12.3447 17.0001Z" fill="white"/>
<path d="M17.0008 13.9778C18.6699 13.9778 20.0231 15.3309 20.0231 17.0001C20.0231 18.6691 18.6699 20.0224 17.0008 20.0224C15.3316 20.0224 13.9786 18.6691 13.9786 17.0001C13.9786 15.3309 15.3316 13.9778 17.0008 13.9778Z" fill="white"/>
</svg>
