<svg width="34" height="34" viewBox="0 0 34 34" fill="none" xmlns="http://www.w3.org/2000/svg">
<path fill-rule="evenodd" clip-rule="evenodd" d="M17 0C7.61116 0 0 7.61116 0 17C0 26.3888 7.61116 34 17 34C26.3888 34 34 26.3888 34 17C34 7.61116 26.3888 0 17 0ZM16.5265 14.4061L16.4909 13.8178C16.3838 12.2932 17.3232 10.9006 18.8096 10.3604C19.3566 10.1683 20.2841 10.1443 20.8906 10.3124C21.1284 10.3844 21.5803 10.6245 21.9013 10.8406L22.484 11.2368L23.1261 11.0327C23.4828 10.9246 23.9585 10.7446 24.1725 10.6245C24.3747 10.5165 24.553 10.4565 24.553 10.4925C24.553 10.6965 24.1131 11.3928 23.7445 11.777C23.245 12.3172 23.3877 12.3652 24.3985 12.0051C25.0049 11.801 25.0168 11.801 24.8979 12.0291C24.8265 12.1491 24.4579 12.5693 24.0655 12.9535C23.3996 13.6137 23.3639 13.6858 23.3639 14.238C23.3639 15.0903 22.9596 16.867 22.5553 17.8394C21.8062 19.6642 20.2009 21.5489 18.5956 22.4973C16.3363 23.8299 13.3278 24.166 10.795 23.3857C9.95072 23.1216 8.5 22.4493 8.5 22.3293C8.5 22.2932 8.93997 22.2452 9.47507 22.2332C10.5928 22.2092 11.7106 21.8971 12.6619 21.3449L13.304 20.9607L12.5668 20.7086C11.5204 20.3485 10.581 19.5201 10.3431 18.7398C10.2718 18.4877 10.2956 18.4757 10.9615 18.4757L11.6512 18.4637L11.0685 18.1876C10.3788 17.8394 9.74857 17.2512 9.4394 16.651C9.21347 16.2188 8.92808 15.1263 9.01132 15.0423C9.0351 15.0063 9.28482 15.0783 9.5702 15.1744C10.3907 15.4745 10.4977 15.4025 10.0221 14.8983C9.13023 13.9859 8.85673 12.6293 9.28482 11.3448L9.48697 10.7686L10.2718 11.5489C11.8771 13.1215 13.7678 14.0579 15.932 14.334L16.5265 14.4061Z" fill="white"/>
</svg>
